<?xml version="1.0" encoding="UTF-8"?>
<svg width="512" height="512" version="1.1" viewBox="0 0 512 512" xml:space="preserve" xmlns="http://www.w3.org/2000/svg"><path d="m332.62 482.16c0.34421-5.0484 1.0327-15.147 0.97543-27.253-0.0573-12.106-0.86054-26.221-2.6965-40.278-1.8359-14.057-4.7047-28.057-8.4339-39.13-3.7292-11.074-8.3192-19.221-11.652-24.025-3.3326-4.8038-5.4082-6.2633-9.1238-7.5412-3.7156-1.2779-9.0709-2.3733-12.317-3.0225-3.2457-0.64917-4.3817-0.85202-4.9505-0.62828-0.56884 0.22374-0.56884 0.87287-0.58915 2.1914-0.0203 1.3186-0.0609 3.3065 0.16238 5.8221 0.22328 2.5155 0.71012 5.5583 1.4813 8.0535 0.77121 2.4952 1.826 4.4426 2.4951 6.5522 0.66905 2.1096 0.95305 4.3816 0.77022 6.3286s-0.83196 3.5698-1.6429 4.6038c-0.81095 1.034-1.7846 1.4803-2.9404 1.5618-1.1558 0.0815-2.4946-0.20253-3.509-0.72936-1.0144-0.52683-1.7042-1.2977-2.1504-1.6839s-0.64909-0.38621-0.99458-0.20373c-0.34548 0.18249-0.83232 0.54762-0.91348 2.0497-0.0812 1.5021 0.24341 4.1392 0.18229 6.005-0.0611 1.8658-0.50739 2.9612-1.0957 4.158-0.58828 1.1967-1.3185 2.495-2.5959 3.3669-1.2773 0.87191-3.103 1.3182-5.0298 0.95367-1.9268-0.36451-3.9553-1.541-5.5988-3.2244-1.6435-1.6834-2.9012-3.8742-3.5508-5.6797-0.64963-1.8055-0.69022-3.2255-0.99365-4.0374-0.30343-0.81187-0.87141-1.0147-1.2782-0.75087s-0.65018 0.99411-1.1573 2.2314c-0.50715 1.2373-1.278 2.9819-2.4341 4.5232-1.1561 1.5413-2.6978 2.8801-4.016 3.7726-1.3183 0.89246-2.4136 1.3387-3.5897 1.3594-1.1761 0.0207-2.4338-0.38497-3.9147-1.3583-1.481-0.9733-3.1849-2.515-4.0377-3.8335s-0.85277-2.4139 0.52661-4.646c1.3794-2.2321 4.1382-5.5994 7.039-9.4942s5.9436-8.317 7.7693-11.238 2.4342-4.3409 2.7386-5.9634c0.30444-1.6225 0.30444-3.4482 0.16318-4.503-0.14125-1.0548-0.42525-1.3388-1.0946-1.5626-0.66934-0.22375-1.7242-0.38604-3.3273 0.0803-1.6031 0.4663-3.7534 1.5617-5.5795 3.2255-1.8261 1.6638-3.3272 3.8951-4.5644 5.396-1.2372 1.5009-2.2109 2.2717-3.2052 3.7327s-2.0085 3.6112-2.9619 5.7412-1.846 4.2397-3.1441 6.1259-3.0021 3.5496-4.6044 4.8072-3.1034 2.1096-4.2796 2.5762-2.0281 0.54778-3.3262 0.0615c-1.2981-0.48627-3.0426-1.5411-3.9563-2.616s-0.99481-2.1703-0.79215-3.4689c0.20265-1.2986 0.68949-2.7997 1.0546-3.9357 0.36515-1.136 0.60857-1.9068 0.62981-2.3732 0.0212-0.46638-0.18161-0.62866-0.66916-0.42654-0.48756 0.20211-1.2584 0.77009-2.0903 1.5817-0.8319 0.8116-1.7244 1.8664-3.9964 4.0369-2.2719 2.1705-5.9232 5.4567-8.6011 8.1548s-4.3818 4.8078-6.2071 6.3696c-1.8254 1.5618-3.7728 2.576-5.7808 3.3672-2.0081 0.79115-4.0772 1.3591-5.7809 1.6433-1.7038 0.28414-3.0426 0.28414-4.7668-0.42529-1.7242-0.70944-3.8338-2.1294-5.2136-3.4071-1.3798-1.2777-2.0289-2.4137-1.989-3.5706 0.04-1.157 0.77021-2.3335 1.9875-3.8348 1.2172-1.5013 2.9212-3.327 4.1788-4.8077s2.069-2.6167 3.2866-3.5907c1.2176-0.97401 2.8404-1.7854 3.8948-2.5154 1.0545-0.73001 1.5413-1.3791 1.6232-1.8856 0.0819-0.50648-0.24264-0.87161-3.3056-1.7039s-8.8646-2.1306-12.78-3.3677c-3.9151-1.2371-5.9436-2.4136-6.9992-3.2856-1.0556-0.87196-1.1368-1.44-0.50802-2.4145 0.62873-0.97454 1.9676-2.3539 4.1994-3.693 2.2318-1.339 5.3557-2.6373 9.3522-3.8138s8.8649-2.2314 11.343-2.7929c2.4779-0.56154 2.566-0.62987 2.61-0.96444 0.044-0.33458 0.044-0.93701-0.16163-1.2434-0.20558-0.30636-0.61827-0.31516-1.5396-0.60829-0.92129-0.29312-2.3514-0.87125-3.66-1.7685s-2.4953-2.1144-3.4638-2.9767c-0.96852-0.86231-1.7191-1.3694-2.2268-2.1299-0.50776-0.76041-0.77147-1.7747-0.91369-2.7485s-0.16252-1.907 0.17245-2.557 1.0247-1.0152 1.43-1.5419 0.52703-1.2164 1.3492-1.8257c0.82212-0.60932 2.3435-1.1367 3.703-1.4003 1.3594-0.26356 2.5563-0.26356 3.8437-0.9837 1.2874-0.72014 2.6668-2.1604 4.138-3.0632 1.4713-0.90285 3.0332-1.268 4.4432-1.491s2.6677-0.3042 4.0778-0.0198c1.4101 0.28442 2.972 0.93354 4.8687 1.9683 1.8967 1.0348 4.1281 2.4547 6.187 4.0574 2.0589 1.6028 3.9454 3.3878 5.832 5.1121 1.8866 1.7243 3.7731 3.3876 5.4468 4.5436 1.6737 1.156 3.1342 1.8051 4.331 2.1902 1.1968 0.38514 2.1299 0.50685 3.3873 0.33417s2.8396-0.63924 4.4014-1.2377c1.5618-0.59844 3.1035-1.3287 3.9653-1.8052s1.0443-0.69962 0.97427-0.90206c-0.0701-0.20244-0.39463-0.38501-1.7741-0.63896-1.3795-0.25396-3.8137-0.57852-5.5278-0.87254-1.7141-0.29402-2.708-0.55773-3.9658-1.2977-1.2578-0.74002-2.7792-1.9571-3.8341-2.8395-1.0549-0.88236-1.6432-1.4301-1.857-2.3633-0.21385-0.93322-0.0516-2.2518 0.35421-3.2464 0.40578-0.99462 1.0549-1.664 2.0393-2.1612s2.3029-0.82171 4.2608-0.93312c1.9578-0.11141 4.5543-0.01 5.9839-0.0406 1.4296-0.0306 1.6933-0.19287 1.1969-0.82091-0.49642-0.62805-1.7541-1.7234-3.4177-3.62-1.6636-1.8966-3.7327-4.5945-4.8185-6.6738s-1.1873-3.5398-1.1874-5.0005 0.10132-2.9212 0.41583-3.8956c0.31451-0.97442 0.84192-1.4613 1.6134-1.7656 0.77148-0.30433 1.7857-0.42604 2.9118-0.35478 1.1261 0.0713 2.3635 0.33498 3.5197 0.86284 1.1563 0.52786 2.2314 1.319 4.2904 3.0129 2.059 1.6939 5.1018 4.2904 6.7752 5.588 1.6735 1.2976 1.9778 1.2976 2.2001 0.52739 0.22234-0.77019 0.36434-2.3119 0.66854-3.8234s0.77075-2.9923 1.1258-4.3615c0.35504-1.3692 0.59846-2.6268 1.126-3.6417s1.339-1.7857 2.4249-2.232c1.086-0.44632 2.4451-0.56803 3.561-0.54753s1.9882 0.18279 2.6165 0.76168 1.0138 1.5729 1.46 2.7494c0.44627 1.1766 0.9534 2.5357 1.6127 4.2904 0.65929 1.7547 1.4707 3.9049 1.8862 5.8015 0.41553 1.8966 0.43583 3.5397 0.55772 4.8989s0.34504 2.4344 1.3393 4.747c0.99428 2.3126 2.7591 5.8625 4.8285 8.9154s4.4428 5.6088 6.4107 7.2516 3.5299 2.3731 5.7004 2.9306c2.1705 0.55755 4.9496 0.94297 6.9477 1.1559 1.9981 0.21291 3.2152 0.2535 4.828 0.69 1.6128 0.43651 3.6211 1.2682 5.0005 1.8565 1.3794 0.58833 2.13 0.93318 2.4741 0.92346 0.3441-0.01 0.28325-0.37485-2.455-4.8073-2.7382-4.4325-8.1543-12.932-11.841-18.86-3.6869-5.9276-5.6444-9.283-8.574-14.045-2.9296-4.7618-6.831-10.93-11.063-17.471-4.2315-6.541-8.7928-13.455-12.522-19.666s-6.627-11.719-8.6926-15.793c-2.0656-4.0737-3.2992-6.713-4.4465-8.8073s-2.2088-3.6434-4.1306-4.9923c-1.9218-1.3488-4.7045-2.4963-6.6267-3.1421s-2.9836-0.78918-4.2463-0.63165c-1.2627 0.15753-2.7257 0.61653-4.5624 2.7686-1.8367 2.152-4.0456 5.9962-5.7061 9.0422-1.6604 3.0461-2.7723 5.2938-4.1396 7.8376-1.3674 2.5438-2.9902 5.3838-4.4507 7.6962-1.4605 2.3125-2.7588 4.0976-4.2796 5.2536-1.5209 1.156-3.2654 1.6834-4.7053 1.7852-1.4399 0.10182-2.5758-0.22273-3.3068-1.2973-0.73101-1.0746-1.0556-2.9002-1.3591-3.8946-0.30356-0.99434-0.58756-1.1566-0.99341-1.2383-0.40585-0.0816-0.93328-0.0816-1.9078 0.75014-0.97451 0.83179-2.3945 2.4952-4.179 3.5701-1.7846 1.075-3.9348 1.5618-5.3545 1.5625-1.4197 7.2e-4 -2.1094-0.48613-2.9011-2.129-0.7917-1.6429-1.6842-4.4422-2.1106-6.2884-0.4263-1.8462-0.38571-2.7387 0.1619-4.2808 0.54761-1.5421 1.6024-3.7329 3.1848-6.066 1.5824-2.3331 3.692-4.8079 4.3827-6.1263s-0.0397-1.4807-0.91266-1.197c-0.87301 0.28371-1.8873 1.014-3.6524 3.0834-1.7651 2.0694-4.2805 5.4773-6.9987 8.7838-2.7182 3.3065-5.6393 6.5116-8.3776 8.9051-2.7383 2.3936-5.2943 3.9758-8.4383 5.3958-3.1441 1.42-6.8765 2.6777-9.4321 3.1446-2.5556 0.46691-3.935 0.14236-5.3552-1.0944s-2.8808-3.387-3.6522-5.5374c-0.77141-2.1504-0.85255-4.3006-0.2643-6.0256 0.58826-1.725 1.8459-3.0233 1.8465-3.5711 6.1e-4 -0.54782-1.2571-0.34496-3.3063 0.48671-2.0492 0.83168-4.8891 2.2922-7.0393 3.3268-2.1502 1.0346-3.6107 1.6431-5.7201 1.9678s-4.8682 0.36532-6.6531 0.26417c-1.785-0.10114-2.5964-0.34456-3.2662-0.89167-0.66977-0.54712-1.1972-1.3991-1.3804-2.4745-0.18319-1.0754-0.0209-2.3736 1.2166-4.3622s3.55-4.6662 5.2947-6.4921c1.7447-1.8258 2.9212-2.7995 3.7536-3.3067 0.83232-0.50714 1.3192-0.54773 1.8664-0.75067s1.1558-0.56807 1.3386-0.97278c0.18283-0.4047-0.0606-0.85096-1.4195-1.1155-1.3589-0.26457-3.8337-0.34572-5.6187-0.54834-1.785-0.20262-2.8804-0.52718-3.7125-1.196-0.83211-0.66881-1.4001-1.6831-1.7858-2.6974-0.38575-1.0143-0.5886-2.0286-0.34549-3.3071 0.24311-1.2785 0.9328-2.8202 1.927-4.2608s2.2924-2.7794 5.5387-3.9764c3.2463-1.197 8.4393-2.2518 12.253-2.7385s6.2481-0.40557 9.3519-0.18237c3.1038 0.2232 6.8768 0.58833 9.3111 1.1568s3.5297 1.3394 4.4629 1.9682c0.93316 0.62881 1.704 1.1156 2.4133 1.1556 0.70934 0.0399 1.3585-0.36581 1.5816-0.93281 0.22319-0.567 0.0203-1.2973 0.18228-3.1639 0.16194-1.8666 0.68936-4.8688 0.64973-6.4312-0.0396-1.5624-0.64816-1.6841-1.7786-1.6004-1.1304 0.0837-2.782 0.37333-4.2962 0.40365-1.5141 0.0303-2.8911-0.19918-4.555-0.68668s-3.6146-1.2334-5.4076-2.0365c-1.793-0.80316-3.4282-1.6638-4.6194-3.2699-1.1912-1.6061-1.937-3.9585-2.3103-5.9382-0.37323-1.9796-0.37323-3.5862 0.0283-4.9494 0.40154-1.3633 1.2048-2.4821 2.2097-3.0417s2.2098-0.55956 4.2325-0.20073 4.8627 1.076 7.0287 1.6929c2.166 0.61688 3.6577 1.1332 4.618 1.2189 0.96025 0.0857 1.3906-0.25857 0.94658-1.018s-1.7636-1.9357-2.8826-3.1118c-1.119-1.1761-2.037-2.3523-2.511-4.1454-0.47398-1.7931-0.50265-4.2028-0.41669-5.953 0.086-1.7502 0.28678-2.8403 0.94677-3.8737 0.66-1.0334 1.7788-2.0088 2.8554-2.4677 1.0765-0.45892 2.1093-0.40154 3.3141 0.37378 1.2048 0.77531 2.5818 2.2671 5.6227 6.5848 3.0408 4.3177 7.7456 11.461 10.643 15.592s3.9878 5.2498 6.1252 5.995 5.3217 1.1182 7.4732 1.2758c2.1515 0.15765 3.2703 0.10027 3.872-0.21465 0.60165-0.31493 0.68772-0.88867 0.55921-1.4765-0.1285-0.58785-0.47275-1.1903-1.5482-1.865s-2.8827-1.4206-4.8194-1.7939c-1.9366-0.37332-4.0021-0.37332-5.5655-0.45925-1.5634-0.0859-2.6248-0.25806-3.8445-1.62-1.2196-1.362-2.5966-3.9152-3.2856-6.0956-0.68899-2.1804-0.68899-3.9878 0.27281-4.9065 0.96181-0.91878 2.8839-0.94748 4.4044-0.88999 1.5206 0.0575 2.6394 0.20092 4.246 0.90422 1.6066 0.70329 3.7008 1.9655 4.9199 2.5962 1.2191 0.63061 1.5634 0.63061 1.835 0.2725 0.27165-0.35811 0.47246-1.0753-0.3444-2.6672-0.81687-1.5919-2.6529-4.059-3.6288-6.0242-0.97596-1.9652-1.0907-3.4282-1.2055-6.1394-0.1148-2.7111-0.22955-6.67 0.0289-8.8225 0.25843-2.1525 0.88957-2.4968 1.5787-2.525 0.68916-0.0282 1.435 0.25868 2.6686 1.0622s2.9548 2.1232 3.9151 3.4718c0.96035 1.3486 1.1612 2.7256 2.6677 5.9387 1.5065 3.2132 4.3179 8.2622 5.809 10.585 1.4911 2.3232 1.6633 1.9216 1.7781 1.1186s0.17224-2.0078 0.0148-3.0691c-0.15739-1.0613-0.53033-1.9793-0.50214-3.1416 0.0282-1.1623 0.45849-2.568 0.71676-3.6293 0.25826-1.0613 0.34433-1.7785 1.2917-2.31 0.94738-0.53149 2.7547-0.87574 3.9598-0.78888 1.2051 0.0869 1.8076 0.60324 2.9262 2.0235 1.1186 1.4202 2.7538 3.7439 3.8151 5.4366s1.549 2.7541 1.7924 5.3359c0.24344 2.5818 0.24344 6.6841 0.58781 11.403s1.0329 10.055 1.7216 13.555c0.68879 3.5 1.3773 5.1639 2.6542 7.1433 1.2769 1.9794 3.1416 4.2744 5.4736 6.2832 2.332 2.0088 5.1307 3.732 6.7299 4.7793 1.5993 1.0473 1.9992 1.4184 2.457 1.4955 0.4578 0.0771 0.97417-0.13806 0.6298-2.1954-0.34436-2.0574-1.5492-5.9589-2.9913-10.571-1.442-4.6118-3.1212-9.9337-4.6201-15.262s-2.8175-10.664-4.2069-15.218c-1.3894-4.5541-2.85-8.3272-4.4322-12.181-1.5822-3.8543-3.2862-7.7896-4.9901-11.177-1.7039-3.3877-3.4078-6.2277-5.5984-8.7636-2.1906-2.5359-4.8682-4.7673-8.114-7.4248s-7.0593-5.7408-10.751-8.7431-7.2622-5.9234-9.3114-7.8908c-2.0492-1.9675-2.5766-2.9817-2.8408-4.3613-0.26418-1.3796-0.26418-3.1241 1.0145-4.1189 1.2787-0.99479 3.8346-1.2382 6.1068-1.0553s4.2602 0.79147 5.4973 1.4615c1.2371 0.67002 1.724 1.4003 2.211 1.7646 0.48704 0.36429 0.97388 0.36429 1.3179-0.0409 0.34399-0.4052 0.54684-1.2166-0.89256-3.0422-1.4394-1.8256-4.5228-4.6655-7.2411-7.404-2.7184-2.7385-5.0714-5.3756-6.4108-7.4446-1.3394-2.0691-1.6639-3.5702-1.6236-5.9641 0.0403-2.394 0.44602-5.6801 0.79132-7.3849s0.62928-1.8265 1.6035-1.6029c0.97426 0.2236 2.6376 0.79158 3.9967 1.441 1.3591 0.64943 2.4139 1.3797 3.996 3.0839 1.5821 1.7042 3.6918 4.3819 5.5986 6.9176 1.9068 2.5358 3.6108 4.9294 4.6862 6.1865 1.0754 1.2571 1.5217 1.3788 1.825 0.95316 0.30331-0.42565 0.46559-1.3993 0.0401-3.0625-0.42552-1.6631-1.4398-4.0162-2.231-5.9231-0.79118-1.9069-1.3592-3.3674-2.0688-4.6049s-1.5616-2.2518-3.1035-4.6252c-1.5419-2.3734-3.7732-6.1059-5.2138-8.9458s-2.0896-4.7874-2.3436-6.3496-0.11194-2.7388 0.32413-4.0678c0.43608-1.3291 1.1664-2.8099 2.2421-3.7637s2.4957-1.3799 3.7741-1.5318c1.2784-0.15191 2.4143-0.0302 3.5806 0.75153 1.1663 0.78173 2.3631 2.222 3.1944 3.9869 0.83124 1.7649 1.2978 3.8543 2.0688 6.1973s1.8462 4.9395 2.5261 6.2369c0.67994 1.2974 0.96393 1.2974 1.2065 0.56771s0.44545-2.1902 0.5064-6.9573c0.061-4.7671-0.0202-12.841 0.0406-18.338s0.26366-8.4186 0.64899-10.691c0.38532-2.2723 0.9533-3.8951 2.8399-6.9788s5.0917-7.6276 7.7087-10.752 4.6456-4.8282 6.1475-5.3549c1.5019-0.52679 2.4756 0.12234 3.0631 4.1797 0.58744 4.0574 0.79029 11.522 1.1149 17.811 0.32462 6.2886 0.7709 11.4 1.0553 14.078s0.40608 2.9212 0.78726 2.966c0.38118 0.0448 1.0216-0.10698 1.2697-0.71266 0.24809-0.60568 0.10465-1.6671 0.76423-3.7117s2.1226-5.0711 3.639-8.0145 3.0859-5.8035 5.1082-8.5523c2.0224-2.7489 4.4971-5.3859 6.2425-6.6842 1.7454-1.2983 2.7596-1.2577 3.5914-0.97303 0.83176 0.28464 1.4809 0.81206 2.1296 1.7454 0.64876 0.93338 1.2979 2.2722 1.8859 4.6456 0.58799 2.3734 1.1154 5.7813 0.89199 9.3716-0.22342 3.5903-1.1971 7.3633-2.394 10.71-1.1969 3.3469-2.6168 6.268-3.3267 8.0333-0.70984 1.7653-0.70984 2.3738 0.10181 2.1904 0.81165-0.18345 2.4345-1.1571 3.8136-2.5971 1.3791-1.4399 2.515-3.3468 4.1787-5.1728 1.6637-1.826 3.8545-3.5705 5.498-4.6255 1.6435-1.0549 2.7389-1.4201 3.5507-1.4193s1.3392 0.36587 2.2927 0.9744c0.95346 0.60853 2.3328 1.4605 3.1842 2.5968 0.85132 1.1363 1.1759 2.5563 0.18153 5.3957s-3.3069 7.0993-6.0048 11.035c-2.6979 3.9352-5.7813 7.546-9.0472 10.994-3.2659 3.4485-6.7144 6.7347-9.3314 9.6763-2.617 2.9416-4.4021 5.5381-5.4164 7.2424-1.0143 1.7043-1.2577 2.5157-1.054 3.226 0.20377 0.71024 0.85289 1.3188 1.9273 0.83123 1.0744-0.48757 2.5755-2.0698 4.4823-4.2201 1.9068-2.1502 4.2193-4.8685 8.1752-8.6823s9.5546-8.7229 13.348-11.604c3.7937-2.8807 5.7817-3.7326 7.9322-4.402s4.463-1.1562 6.6266-1.3823c2.1636-0.22607 4.1778-0.19162 5.6585 0.53952 1.4807 0.73114 2.4281 2.1572 2.4954 3.3563 0.0673 1.1991-0.74406 2.1728-3.1174 4.6679-2.3734 2.4951-6.3087 6.5116-11.319 11.258-5.0106 4.7468-11.096 10.224-16.066 14.606-4.97 4.3817-8.8242 7.6679-10.69 9.454s-1.7442 2.0701-1.5206 2.3335 0.54816 0.50686 1.4401 0.18153 2.3525-1.2179 5.172-3.7129c2.8195-2.495 6.9983-6.5926 9.8387-8.8648 2.8405-2.2721 4.3416-2.7184 5.5584-3.2661 1.2168-0.54768 2.1499-1.1968 3.1851-0.93221 1.0352 0.26458 2.1711 1.4411 3.0432 2.557 0.87206 1.1158 1.4806 2.1707-0.56877 4.9895-2.0494 2.8189-6.7555 7.4033-11.644 12.008-4.8888 4.6048-9.9601 9.2299-14.078 13.916-4.1182 4.6862-7.2826 9.4329-9.3924 13.308-2.1097 3.8748-3.1646 6.877-4.0165 10.468-0.85195 3.5908-1.5011 7.7695-1.5415 13.409-0.0404 5.6396 0.52759 12.739 1.2986 18.156 0.77103 5.4164 1.7447 9.1488 2.82 12.313 1.0753 3.1646 2.2519 5.7611 3.1043 7.262 0.85242 1.5009 1.3798 1.9066 2.17 1.2164 0.79019-0.69014 1.845-2.4752 2.5551-5.1322 0.71007-2.657 1.0752-6.1866 0.7712-9.8176-0.304-3.6309-1.2777-7.3634-2.2107-10.406-0.93303-3.0428-1.8256-5.3959-2.0694-8.0739-0.24385-2.678 0.16185-5.6802 0.77036-8.1553 0.60851-2.4751 1.4199-4.4225 2.3132-5.4778 0.89333-1.0553 1.867-1.2176 2.5972-0.83118s1.217 1.3196 1.5615 2.9018 0.54731 3.8136 0.97348 6.1262c0.42617 2.3126 1.0753 4.7063 1.8468 6.0039 0.77149 1.2976 1.664 1.5004 1.7039-0.64921 0.0399-2.1497-0.77155-6.653-0.93408-10.609-0.16252-3.956 0.32432-7.3638 1.298-10.63s2.4342-6.3902 4.0572-8.7437 3.4082-3.9358 4.8898-4.3815c1.4817-0.44572 2.6582 0.24396 3.6316 1.1572 0.97342 0.9132 1.7442 2.0492 2.1494 3.4488 0.40516 1.3996 0.44575 3.063 0.38483 4.8887-0.0609 1.8256-0.2232 3.8136-0.73045 5.8216-0.50724 2.008-1.3592 4.0365-1.846 6.0451-0.48674 2.0086-0.60846 3.9966-0.34388 5.0305 0.26459 1.034 0.91372 1.1151 1.7656 1.1353 0.8519 0.0201 1.9067-0.0204 2.7986-0.42612 0.89185-0.40568 1.6221-1.1765 2.2508-2.5149 0.62874-1.3384 1.1562-3.2452 1.3186-6.7747s-0.0404-8.6819-0.14186-12.78c-0.10146-4.0977-0.10146-7.1405 0.66926-10.265 0.77072-3.1244 2.3124-6.3295 4.2398-8.8453s4.2399-4.3415 5.9851-5.2746c1.7452-0.93309 2.9217-0.97368 3.9562-0.36424 1.0345 0.60943 1.927 1.8671 2.048 3.7331 0.12097 1.866-0.52815 4.3408-1.157 6.491-0.62888 2.1502-1.2374 3.9759-1.4196 5.2949-0.18216 1.319 0.0613 2.1304 0.54791 2.2106 0.48664 0.0802 1.2169-0.56892 1.8861-1.7248s1.2778-2.8192 2.353-4.848c1.0752-2.0288 2.6168-4.4225 4.5846-7.1003 1.9678-2.6778 4.3614-5.6395 6.6134-7.8711s4.3616-3.7327 6.4312-4.6456 4.0981-1.2374 5.498-1.3996c1.3998-0.16219 2.1707-0.16219 2.7383 0.26471s0.93277 1.2789 1.115 2.3539c0.18218 1.075 0.18218 2.3732 0.0198 3.6104-0.16243 1.2372-0.48699 2.4137-0.93328 3.9554-0.4463 1.5417-1.0143 3.4485-2.4343 6.2883-1.42 2.8397-3.6919 6.6128-4.5024 8.5602-0.81042 1.9474-0.16131 2.0691 1.3191 1.6833 1.4804-0.38575 3.7929-1.2783 6.1869-1.8868 2.394-0.6085 4.8687-0.93306 6.9379-1.1968 2.0692-0.26371 3.7325-0.46656 5.0108-0.26304 1.2782 0.20352 2.1708 0.81208 2.86 1.6238 0.68929 0.81174 1.1761 1.826 0.79011 3.7526s-1.6437 4.7665-3.9763 7.3626-5.7405 4.9492-8.8843 6.3084c-3.1438 1.3592-6.0243 1.7243-8.7222 1.9475-2.6979 0.2232-5.2133 0.30434-7.3237 1.197-2.1104 0.8926-3.8144 2.5966-4.8084 3.5906-0.994 0.994-1.278 1.278-0.91201 1.481 0.36597 0.20295 1.3802 0.32466 2.4345 0.081 1.0543-0.24367 2.1497-0.85223 5.0308-1.2172 2.8811-0.36501 7.5467-0.48672 12.598-0.36493s10.488 0.48692 13.977 0.93346c3.4892 0.44654 5.0309 0.97395 6.41 2.1714s2.5962 3.0637 2.7578 4.9091c0.16157 1.8455-0.73098 3.6711-2.5969 5.4964s-4.7059 3.651-10.162 4.8073c-5.4564 1.1564-13.53 1.6432-20.042 2.3531s-11.461 1.643-14.93 2.2314c-3.4688 0.58831-5.4567 0.83174-6.5123 1.5019s-1.1773 1.7656-0.70988 2.3126 1.5222 0.54706 2.9422 0.48616 3.205-0.18262 6.5118 0.0813c3.3067 0.26387 8.1346 0.91299 12.942 1.968 4.8078 1.055 9.5951 2.5156 12.414 3.8753 2.8194 1.3597 3.6714 2.6174 4.0562 3.8141 0.3848 1.1967 0.30366 2.3327-0.8321 3.5693-1.1358 1.2366-3.3265 2.5754-6.0243 3.7317-2.6978 1.1563-5.9028 2.13-8.9657 2.7183-3.0629 0.58838-5.984 0.79124-8.6617 0.89271-2.6777 0.10148-5.1119 0.10148-6.3704 0.52815-1.2585 0.42666-1.3396 1.2787-0.77099 2.5771 0.56867 1.2985 1.7858 3.043 2.1705 4.5234s-0.0616 2.6975-1.3591 3.4679-3.4478 1.0949-6.6325 1.1762c-3.1847 0.0813-7.404-0.081-11.725-1.095-4.3207-1.014-8.7429-2.8802-12.273-4.6043s-6.1668-3.3064-8.3171-4.3007c-2.1503-0.9943-3.8137-1.4-5.3152-1.4206-1.5015-0.0206-2.8403 0.3445-4.2406 1.4808-1.4003 1.1362-2.8608 3.0431-3.7738 4.4024-0.91292 1.3594-1.278 2.1708-1.1965 3.6522 0.0815 1.4814 0.60893 3.6316 2.232 7.3236s4.3413 8.9256 8.8042 17.081c4.4629 8.1549 10.67 19.231 16.594 29.13 5.9235 9.8994 11.563 18.622 17.811 28.522 6.248 9.8995 13.104 20.975 17.141 27.811 4.0367 6.8363 5.2538 9.4328 6.0041 10.629s1.0343 0.99301 1.237-1.9882c0.2027-2.9812 0.32442-8.7422 0.48657-11.907 0.16214-3.1649 0.365-3.7328 0.36518-6.2074 1.9e-4 -2.4745-0.20266-6.8561-0.97299-10.041-0.77032-3.1848-2.1091-5.1727-3.5897-6.5728-1.4805-1.4001-3.1034-2.2115-4.9088-3.0636s-3.7934-1.7446-5.5383-3.367c-1.7449-1.6224-3.246-3.9755-4.5851-6.7546-1.3391-2.7791-2.5156-5.9842-2.8812-8.3175-0.36561-2.3333 0.0807-3.7938 0.79126-4.687 0.7106-0.89319 1.6843-1.2178 2.415-1.2984 0.73074-0.0807 1.2176 0.0816 1.5817-0.16174 0.36409-0.24332 0.60752-0.89244 0.36469-1.9265s-0.97309-2.4541-1.7036-4.8681c-0.73056-2.414-1.4608-5.822-1.7248-8.9258-0.26394-3.1039-0.0611-5.9032 0.36487-7.7498 0.42595-1.8465 1.0751-2.7391 2.0092-2.7995 0.93411-0.0604 2.1512 0.7104 3.1045 1.4409 0.95331 0.73049 1.643 1.4202 2.0681 1.3592 0.42514-0.061 0.58742-0.87246 0.68895-1.8055 0.10152-0.933 0.14211-1.9878 0.36519-3.7122 0.22309-1.7244 0.62879-4.1181 1.562-6.1066 0.93322-1.9886 2.3937-3.5708 3.8146-4.1792 1.4209-0.60837 2.8003-0.24323 4.1996 1.3397s2.8192 4.3823 4.0768 7.5672c1.2575 3.1849 2.3529 6.7551 3.2861 9.5951 0.9332 2.84 1.704 4.9497 2.0891 6.5926s0.3851 2.8195 0.64972 3.5088c0.26461 0.68931 0.79203 0.89216 1.217 0.74998s0.74955-0.62903 1.1552-1.4403c0.40568-0.81124 0.89252-1.9472 0.832-3.9753-0.0605-2.0281-0.66909-4.9492-1.9671-8.2963s-3.286-7.1202-4.5233-9.4327c-1.2374-2.3126-1.7242-3.1646-2.2926-5.112s-1.2174-4.9902-1.4205-8.3578c-0.20309-3.3676 0.0403-7.0595 0.66941-9.2512 0.62907-2.1916 1.6433-2.8813 2.5568-3.1854 0.91351-0.30409 1.7249-0.22295 3.388 2.3745 1.6631 2.5974 4.1784 7.7093 5.6384 9.7779 1.46 2.0686 1.8657 1.0949 2.2106-1.8462s0.62897-7.8502 1.0144-12.13c0.38538-4.2804 0.87222-7.9317 2.901-11.239 2.0288-3.3073 5.599-6.2689 7.8514-7.4245 2.2525-1.1556 3.1856-0.50649 4.1184 0.69066 0.93277 1.1972 1.8659 2.9417 2.1494 8.4593s-0.0816 14.808 0.0605 19.189c0.14212 4.3809 0.79125 3.8535 1.9677 2.6364 1.1765-1.217 2.8804-3.1238 5.0513-4.7469 2.1709-1.623 4.808-2.9619 6.7762-3.5702s3.2665-0.48663 4.0572-0.12067c0.79075 0.36597 1.0747 0.97451 1.3991 2.1714 0.32433 1.1968 0.68947 2.9819-0.46716 7.1198-1.1566 4.1378-3.8343 10.629-6.0248 14.381-2.1905 3.7523-3.8944 4.7666-5.923 5.9634-2.0286 1.1969-4.3816 2.5762-6.5119 4.1586s-4.037 3.3675-5.9034 5.4165-3.6921 4.3615-4.6657 6.6544-1.0954 4.5648-1.1562 5.7001c-0.0608 1.1353 1.8866 3.0827 2.638 3.1436 0.75137 0.0609 2.2525 0.18264 3.6314-0.12186 1.3789-0.30449 2.6365-1.0348 3.8736-2.2922 1.2371-1.2574 2.4542-3.0425 3.2048-4.5838 0.75056-1.5413 1.0346-2.8396 2.6169-5.1121 1.5824-2.2725 4.4629-5.5182 7.222-7.912 2.7591-2.3939 5.3962-3.9356 7.283-4.9093s3.0227-1.3794 4.2946-1.2036 2.6788 0.93187 3.2864 2.1898c0.60763 1.2579 0.41786 3.0172 0.22149 4.3836-0.19636 1.3664-0.39922 2.3401-1.6366 4.2262-1.2374 1.8861-3.5093 4.6855-5.4363 6.7139-1.927 2.0284-3.5092 3.2861-4.6648 3.8745s-1.8858 0.50731-2.3128 0.66999c-0.42696 0.16268-0.54866 0.56837-0.65 1.2583-0.10135 0.68991-0.18249 1.6636 0.1831 1.9873 0.36559 0.32373 1.177-8.3e-4 2.739-0.62969 1.562-0.62887 3.8745-1.562 6.1873-2.2111 2.3128-0.64909 4.6253-1.0142 8.4393-0.50675 3.814 0.50748 9.1287 1.8869 11.846 3.1857 2.7175 1.2989 2.8392 2.516 2.413 3.6715s-1.3998 2.2509-3.4281 3.691c-2.0283 1.4401-5.1116 3.2252-8.0324 4.3612-2.9208 1.136-5.6796 1.6229-8.4994 2.2517-2.8198 0.62883-5.7003 1.3997-7.7083 1.7042-2.008 0.30454-3.1439 0.14226-3.7534 0.36592-0.60948 0.22366-0.69063 0.83222-0.0811 1.3593 0.60955 0.52709 1.9078 0.97337 3.5915 1.3992 1.6837 0.42587 3.7528 0.83157 5.4363 1.8465s2.9818 2.6378 3.7725 3.9158 1.0748 2.2112 0.77011 3.245c-0.30463 1.0338-1.1972 2.1698-3.0628 2.981-1.8656 0.81122-4.7056 1.2981-8.3772 1.6227-3.6716 0.32465-8.1749 0.48693-11.278 0.2236-3.1035-0.26332-4.8075-0.95302-6.7348-1.2171-1.9274-0.26413-4.0776-0.10185-6.8977 0.93265-2.8202 1.0345-6.3092 2.9413-9.129 4.6859-2.8198 1.7446-4.9701 3.3269-6.2483 5.5184s-1.6839 4.9909-2.0084 8.2976c-0.32452 3.3067-0.56795 7.1203-0.32422 10.326 0.24372 3.2053 0.97398 5.8018 1.5418 9.6763s0.97352 9.027 1.6026 13.226 1.481 7.4448 2.6576 11.583c1.1766 4.1383 2.6777 9.169 4.3614 15.032 1.6837 5.8626 3.5499 12.557 4.5843 18.216 1.0344 5.6596 1.2372 10.285 1.1966 20.57-0.0406 10.285-0.3246 26.229-0.87243 36.067-0.54783 9.8384-1.3592 13.571-2.1707 16.451s-1.6229 4.9089-2.2912 5.8015-1.1958 0.64917-1.6659 0.29776c-0.47006-0.3514-0.88236-0.8115-1.0892-1.0423-0.20685-0.23083-0.20709-0.23076 0.13712-5.2792z" fill="#8dbe2e" fill-rule="evenodd" stroke-linecap="round" stroke-linejoin="round" stroke-width="1.5207"/></svg>
